<svg width="106" height="39" viewBox="0 0 106 39" fill="none" xmlns="http://www.w3.org/2000/svg">
<g id="Frame" clip-path="url(#clip0_0_9)">
<path id="Vector" fill-rule="evenodd" clip-rule="evenodd" d="M22.5772 -2.27303C15.6804 6.00511 9.0628 16.2814 8.99998 23.953C8.92987 25.3289 9.16682 26.7031 9.6929 27.9716C10.219 29.2402 11.0204 30.3697 12.0365 31.2748C14.7861 33.7459 18.3373 35.0815 21.9978 35.0214C26.982 35.0214 31.9381 32.9733 35.8124 31.389C42.3462 28.72 114.546 -3.33633 114.546 -3.33633C115.244 -3.69315 115.112 -4.1356 114.239 -3.91437L35.6239 17.8229C34.1432 18.2547 32.6123 18.4804 31.0726 18.4937C25.0553 18.5294 19.7082 15.1182 19.7501 7.92478C19.7501 5.11307 20.6087 1.71618 22.5423 -2.27303H22.5772Z" fill="#231F20"/>
</g>
<defs>
<clipPath id="clip0_0_9">
<rect width="106" height="39" fill="white"/>
</clipPath>
</defs>
</svg>
